<?xml version="1.0" encoding="UTF-8"?><svg id="a" xmlns="http://www.w3.org/2000/svg" width="64" height="64" viewBox="0 0 64 64"><rect x="0" y="0" width="64" height="64" rx="32" ry="32" style="fill:#f8fafc;"/><path d="M53,17.503c0,.893-.33,1.706-.881,2.325-.3-.832-1.095-1.425-2.029-1.425-.735,0-1.384.367-1.777.93l-16.05,22.924c-2.591,3.641-6.791,6.06-11.565,6.229,0,0-.394.015-.529.015-5.062,0-9.169-4.106-9.169-9.169,0-.964.15-1.89.424-2.764,1.241.203,2.512.304,3.806.304,4.414,0,8.546-1.189,12.097-3.266,1.729-1.009,3.319-2.231,4.736-3.626l14.955-14.951c.634-.638,1.511-1.027,2.479-1.027.776,0,1.496.251,2.074.682.866.634,1.429,1.661,1.429,2.82h0ZM26.194,31.662c1.552-.906,2.997-2.012,4.279-3.274l3.17-3.169-8.393-9.718h-13.5l14.117,16.346c.109-.061.219-.121.327-.184ZM34.941,42.353l5.309,6.147h13.5l-12.764-14.78-6.044,8.633Z" style="fill:#333;"/></svg>